<mxfile host="app.diagrams.net" modified="2020-08-19T07:43:18.920Z" agent="5.0 (Windows NT 10.0; Win64; x64) AppleWebKit/537.36 (KHTML, like Gecko) Chrome/84.0.4147.125 Safari/537.36" etag="LIXSQLsaeAk32iCOh-SY" version="13.6.3" type="github">
  <diagram id="C5RBs43oDa-KdzZeNtuy" name="Page-1">
    <mxGraphModel dx="1600" dy="1000" grid="1" gridSize="10" guides="1" tooltips="1" connect="1" arrows="1" fold="1" page="1" pageScale="1" pageWidth="827" pageHeight="1169" math="0" shadow="0">
      <root>
        <mxCell id="WIyWlLk6GJQsqaUBKTNV-0" />
        <mxCell id="WIyWlLk6GJQsqaUBKTNV-1" parent="WIyWlLk6GJQsqaUBKTNV-0" />
        <mxCell id="vXiFuxNUjE4Z8ElwwNBc-1" value="" style="whiteSpace=wrap;html=1;aspect=fixed;fillColor=#dae8fc;strokeColor=#6c8ebf;" vertex="1" parent="WIyWlLk6GJQsqaUBKTNV-1">
          <mxGeometry x="60" y="30" width="750" height="750" as="geometry" />
        </mxCell>
        <mxCell id="vXiFuxNUjE4Z8ElwwNBc-2" value="header logo" style="rounded=0;whiteSpace=wrap;html=1;" vertex="1" parent="WIyWlLk6GJQsqaUBKTNV-1">
          <mxGeometry x="90" y="60" width="200" height="60" as="geometry" />
        </mxCell>
        <mxCell id="vXiFuxNUjE4Z8ElwwNBc-3" value="info 1" style="rounded=1;whiteSpace=wrap;html=1;" vertex="1" parent="WIyWlLk6GJQsqaUBKTNV-1">
          <mxGeometry x="90" y="170" width="120" height="60" as="geometry" />
        </mxCell>
        <mxCell id="vXiFuxNUjE4Z8ElwwNBc-4" value="info 1" style="rounded=1;whiteSpace=wrap;html=1;" vertex="1" parent="WIyWlLk6GJQsqaUBKTNV-1">
          <mxGeometry x="250" y="170" width="120" height="60" as="geometry" />
        </mxCell>
        <mxCell id="vXiFuxNUjE4Z8ElwwNBc-5" value="info 1" style="rounded=1;whiteSpace=wrap;html=1;" vertex="1" parent="WIyWlLk6GJQsqaUBKTNV-1">
          <mxGeometry x="400" y="170" width="120" height="60" as="geometry" />
        </mxCell>
        <mxCell id="vXiFuxNUjE4Z8ElwwNBc-7" value="" style="rounded=0;whiteSpace=wrap;html=1;" vertex="1" parent="WIyWlLk6GJQsqaUBKTNV-1">
          <mxGeometry x="90" y="280" width="470" height="310" as="geometry" />
        </mxCell>
        <mxCell id="vXiFuxNUjE4Z8ElwwNBc-9" value="Map" style="html=1;strokeColor=none;fillColor=#0079D6;labelPosition=center;verticalLabelPosition=middle;verticalAlign=top;align=center;fontSize=12;outlineConnect=0;spacingTop=-6;fontColor=#FFFFFF;shape=mxgraph.sitemap.map;" vertex="1" parent="WIyWlLk6GJQsqaUBKTNV-1">
          <mxGeometry x="90" y="280" width="470" height="310" as="geometry" />
        </mxCell>
        <mxCell id="vXiFuxNUjE4Z8ElwwNBc-10" value="worldwide" style="rounded=0;whiteSpace=wrap;html=1;" vertex="1" parent="WIyWlLk6GJQsqaUBKTNV-1">
          <mxGeometry x="530" y="60" width="120" height="60" as="geometry" />
        </mxCell>
        <mxCell id="vXiFuxNUjE4Z8ElwwNBc-12" value="" style="shape=table;html=1;whiteSpace=wrap;startSize=0;container=1;collapsible=0;childLayout=tableLayout;columnLines=0;rowLines=0;" vertex="1" parent="WIyWlLk6GJQsqaUBKTNV-1">
          <mxGeometry x="590" y="170" width="180" height="300" as="geometry" />
        </mxCell>
        <mxCell id="vXiFuxNUjE4Z8ElwwNBc-13" value="" style="shape=partialRectangle;html=1;whiteSpace=wrap;collapsible=0;dropTarget=0;pointerEvents=0;fillColor=none;top=0;left=0;bottom=0;right=0;points=[[0,0.5],[1,0.5]];portConstraint=eastwest;" vertex="1" parent="vXiFuxNUjE4Z8ElwwNBc-12">
          <mxGeometry width="180" height="100" as="geometry" />
        </mxCell>
        <mxCell id="vXiFuxNUjE4Z8ElwwNBc-14" value="Value 1" style="shape=partialRectangle;html=1;whiteSpace=wrap;connectable=0;fillColor=none;top=0;left=0;bottom=0;right=0;overflow=hidden;" vertex="1" parent="vXiFuxNUjE4Z8ElwwNBc-13">
          <mxGeometry width="100" height="100" as="geometry" />
        </mxCell>
        <mxCell id="vXiFuxNUjE4Z8ElwwNBc-15" value="Value 2" style="shape=partialRectangle;html=1;whiteSpace=wrap;connectable=0;fillColor=none;top=0;left=0;bottom=0;right=0;overflow=hidden;" vertex="1" parent="vXiFuxNUjE4Z8ElwwNBc-13">
          <mxGeometry x="100" width="20" height="100" as="geometry" />
        </mxCell>
        <mxCell id="vXiFuxNUjE4Z8ElwwNBc-16" value="Value 3" style="shape=partialRectangle;html=1;whiteSpace=wrap;connectable=0;fillColor=none;top=0;left=0;bottom=0;right=0;overflow=hidden;" vertex="1" parent="vXiFuxNUjE4Z8ElwwNBc-13">
          <mxGeometry x="120" width="60" height="100" as="geometry" />
        </mxCell>
        <mxCell id="vXiFuxNUjE4Z8ElwwNBc-17" value="" style="shape=partialRectangle;html=1;whiteSpace=wrap;collapsible=0;dropTarget=0;pointerEvents=0;fillColor=none;top=0;left=0;bottom=0;right=0;points=[[0,0.5],[1,0.5]];portConstraint=eastwest;" vertex="1" parent="vXiFuxNUjE4Z8ElwwNBc-12">
          <mxGeometry y="100" width="180" height="100" as="geometry" />
        </mxCell>
        <mxCell id="vXiFuxNUjE4Z8ElwwNBc-18" value="Value 4" style="shape=partialRectangle;html=1;whiteSpace=wrap;connectable=0;fillColor=none;top=0;left=0;bottom=0;right=0;overflow=hidden;" vertex="1" parent="vXiFuxNUjE4Z8ElwwNBc-17">
          <mxGeometry width="100" height="100" as="geometry" />
        </mxCell>
        <mxCell id="vXiFuxNUjE4Z8ElwwNBc-19" value="Value 5" style="shape=partialRectangle;html=1;whiteSpace=wrap;connectable=0;fillColor=none;top=0;left=0;bottom=0;right=0;overflow=hidden;" vertex="1" parent="vXiFuxNUjE4Z8ElwwNBc-17">
          <mxGeometry x="100" width="20" height="100" as="geometry" />
        </mxCell>
        <mxCell id="vXiFuxNUjE4Z8ElwwNBc-20" value="Value 6" style="shape=partialRectangle;html=1;whiteSpace=wrap;connectable=0;fillColor=none;top=0;left=0;bottom=0;right=0;overflow=hidden;" vertex="1" parent="vXiFuxNUjE4Z8ElwwNBc-17">
          <mxGeometry x="120" width="60" height="100" as="geometry" />
        </mxCell>
        <mxCell id="vXiFuxNUjE4Z8ElwwNBc-21" value="" style="shape=partialRectangle;html=1;whiteSpace=wrap;collapsible=0;dropTarget=0;pointerEvents=0;fillColor=none;top=0;left=0;bottom=0;right=0;points=[[0,0.5],[1,0.5]];portConstraint=eastwest;" vertex="1" parent="vXiFuxNUjE4Z8ElwwNBc-12">
          <mxGeometry y="200" width="180" height="100" as="geometry" />
        </mxCell>
        <mxCell id="vXiFuxNUjE4Z8ElwwNBc-22" value="Value 7" style="shape=partialRectangle;html=1;whiteSpace=wrap;connectable=0;fillColor=none;top=0;left=0;bottom=0;right=0;overflow=hidden;" vertex="1" parent="vXiFuxNUjE4Z8ElwwNBc-21">
          <mxGeometry width="100" height="100" as="geometry" />
        </mxCell>
        <mxCell id="vXiFuxNUjE4Z8ElwwNBc-23" value="Value 8" style="shape=partialRectangle;html=1;whiteSpace=wrap;connectable=0;fillColor=none;top=0;left=0;bottom=0;right=0;overflow=hidden;" vertex="1" parent="vXiFuxNUjE4Z8ElwwNBc-21">
          <mxGeometry x="100" width="20" height="100" as="geometry" />
        </mxCell>
        <mxCell id="vXiFuxNUjE4Z8ElwwNBc-24" value="Value 9" style="shape=partialRectangle;html=1;whiteSpace=wrap;connectable=0;fillColor=none;top=0;left=0;bottom=0;right=0;overflow=hidden;" vertex="1" parent="vXiFuxNUjE4Z8ElwwNBc-21">
          <mxGeometry x="120" width="60" height="100" as="geometry" />
        </mxCell>
        <mxCell id="vXiFuxNUjE4Z8ElwwNBc-27" value="" style="fillColor=#10739E;strokeColor=none;" vertex="1" parent="WIyWlLk6GJQsqaUBKTNV-1">
          <mxGeometry x="590" y="610" width="30" height="40" as="geometry" />
        </mxCell>
        <mxCell id="vXiFuxNUjE4Z8ElwwNBc-28" value="" style="shape=mxgraph.arrows2.arrow;dy=0.4;dx=16;notch=0;direction=north;fillColor=#1699D3;strokeColor=none;" vertex="1" parent="vXiFuxNUjE4Z8ElwwNBc-27">
          <mxGeometry x="3" y="12" width="24" height="28" as="geometry" />
        </mxCell>
        <mxCell id="vXiFuxNUjE4Z8ElwwNBc-29" value="Label" style="text;html=1;align=center;verticalAlign=middle;whiteSpace=wrap;fontColor=#FFFFFF;fontSize=10;" vertex="1" parent="vXiFuxNUjE4Z8ElwwNBc-27">
          <mxGeometry width="30" height="8" as="geometry" />
        </mxCell>
        <mxCell id="vXiFuxNUjE4Z8ElwwNBc-30" value="" style="fillColor=#F2931E;strokeColor=none;" vertex="1" parent="WIyWlLk6GJQsqaUBKTNV-1">
          <mxGeometry x="625" y="530" width="30" height="120" as="geometry" />
        </mxCell>
        <mxCell id="vXiFuxNUjE4Z8ElwwNBc-31" value="" style="shape=mxgraph.arrows2.arrow;dy=0.4;dx=16;notch=0;direction=south;fillColor=#F5AB50;strokeColor=none;" vertex="1" parent="vXiFuxNUjE4Z8ElwwNBc-30">
          <mxGeometry x="3" width="24" height="80" as="geometry" />
        </mxCell>
        <mxCell id="vXiFuxNUjE4Z8ElwwNBc-32" value="Label" style="text;html=1;align=center;verticalAlign=middle;whiteSpace=wrap;fontColor=#FFFFFF;fontSize=10;" vertex="1" parent="vXiFuxNUjE4Z8ElwwNBc-30">
          <mxGeometry width="30" height="20" as="geometry" />
        </mxCell>
        <mxCell id="vXiFuxNUjE4Z8ElwwNBc-33" value="" style="fillColor=#AE4132;strokeColor=none;" vertex="1" parent="WIyWlLk6GJQsqaUBKTNV-1">
          <mxGeometry x="660" y="520" width="30" height="130" as="geometry" />
        </mxCell>
        <mxCell id="vXiFuxNUjE4Z8ElwwNBc-34" value="" style="shape=mxgraph.arrows2.arrow;dy=0.4;dx=16;notch=0;direction=north;fillColor=#E85642;strokeColor=none;" vertex="1" parent="vXiFuxNUjE4Z8ElwwNBc-33">
          <mxGeometry x="3" y="80" width="24" height="50" as="geometry" />
        </mxCell>
        <mxCell id="vXiFuxNUjE4Z8ElwwNBc-35" value="Label" style="text;html=1;align=center;verticalAlign=middle;whiteSpace=wrap;fontColor=#FFFFFF;fontSize=10;" vertex="1" parent="vXiFuxNUjE4Z8ElwwNBc-33">
          <mxGeometry width="30" height="20" as="geometry" />
        </mxCell>
        <mxCell id="vXiFuxNUjE4Z8ElwwNBc-36" value="" style="fillColor=#12AAB5;strokeColor=none;" vertex="1" parent="WIyWlLk6GJQsqaUBKTNV-1">
          <mxGeometry x="695" y="570" width="30" height="80" as="geometry" />
        </mxCell>
        <mxCell id="vXiFuxNUjE4Z8ElwwNBc-37" value="" style="shape=mxgraph.arrows2.arrow;dy=0.4;dx=16;notch=0;direction=south;fillColor=#64BBE2;strokeColor=none;" vertex="1" parent="vXiFuxNUjE4Z8ElwwNBc-36">
          <mxGeometry x="3" width="24" height="30" as="geometry" />
        </mxCell>
        <mxCell id="vXiFuxNUjE4Z8ElwwNBc-38" value="Label" style="text;html=1;align=center;verticalAlign=middle;whiteSpace=wrap;fontColor=#FFFFFF;fontSize=10;" vertex="1" parent="vXiFuxNUjE4Z8ElwwNBc-36">
          <mxGeometry width="30" height="20" as="geometry" />
        </mxCell>
        <mxCell id="vXiFuxNUjE4Z8ElwwNBc-39" value="" style="fillColor=#23445D;strokeColor=none;" vertex="1" parent="WIyWlLk6GJQsqaUBKTNV-1">
          <mxGeometry x="730" y="580" width="30" height="70" as="geometry" />
        </mxCell>
        <mxCell id="vXiFuxNUjE4Z8ElwwNBc-40" value="" style="shape=mxgraph.arrows2.arrow;dy=0.4;dx=16;notch=0;direction=north;fillColor=#2F5B7C;strokeColor=none;" vertex="1" parent="vXiFuxNUjE4Z8ElwwNBc-39">
          <mxGeometry x="3" y="10" width="24" height="60" as="geometry" />
        </mxCell>
        <mxCell id="vXiFuxNUjE4Z8ElwwNBc-41" value="Label" style="text;html=1;align=center;verticalAlign=middle;whiteSpace=wrap;fontColor=#FFFFFF;fontSize=10;" vertex="1" parent="vXiFuxNUjE4Z8ElwwNBc-39">
          <mxGeometry width="30" height="20" as="geometry" />
        </mxCell>
      </root>
    </mxGraphModel>
  </diagram>
</mxfile>
